<?xml version="1.0" encoding="utf-8"?>
<!-- Generator: Adobe Illustrator 16.0.0, SVG Export Plug-In . SVG Version: 6.00 Build 0)  -->
<!DOCTYPE svg PUBLIC "-//W3C//DTD SVG 1.1//EN" "http://www.w3.org/Graphics/SVG/1.1/DTD/svg11.dtd">
<svg version="1.1" id="svg11300" xmlns:svg="http://www.w3.org/2000/svg"
	 xmlns="http://www.w3.org/2000/svg" xmlns:xlink="http://www.w3.org/1999/xlink" x="0px" y="0px" width="48px" height="48px"
	 viewBox="0 0 48 48" enable-background="new 0 0 48 48" xml:space="preserve">
<title  id="title8836">Optical Drive</title>
<g id="layer6" transform="translate(0,-252)" display="none">
	<rect id="rect6284" x="296" y="50" display="inline" fill="#EEEEEC" width="48" height="48"/>
	<rect id="rect6592" x="303" y="126" display="inline" fill="#EEEEEC" width="32" height="32"/>
	<rect id="rect6749-5" x="302" y="176" display="inline" fill="#FFFFFF" width="24" height="24"/>
	<rect id="rect6749" x="303" y="177" display="inline" fill="#EEEEEC" width="22" height="22"/>
	<rect id="rect6833" x="303" y="219" display="inline" fill="#EEEEEC" width="16" height="16"/>
	<text transform="matrix(1 0 0 1 20.9707 21.5137)" display="inline" font-family="'ArialMT'" font-size="18.3007">categories</text>
	<text transform="matrix(1 0 0 1 191.9707 21.5137)" display="inline" font-family="'Arial-BoldMT'" font-size="18.3007">applications-accessories</text>
</g>
<path id="path10844" opacity="0.6" fill="#FFFFFF" enable-background="new    " d="M23.8,32.141L35.4,12.65L24.6,34L23.8,32.141z"/>
<linearGradient id="path10784_1_" gradientUnits="userSpaceOnUse" x1="87.7168" y1="118.2939" x2="88.8168" y2="140.3739" gradientTransform="matrix(1 0 0 -1 -59.7998 152)">
	<stop  offset="0" style="stop-color:#D9D6D0"/>
	<stop  offset="0.2852" style="stop-color:#FFFFFF"/>
	<stop  offset="0.4597" style="stop-color:#D3D7CF"/>
	<stop  offset="0.6411" style="stop-color:#EEEEEC"/>
	<stop  offset="1" style="stop-color:#BABDB6"/>
</linearGradient>
<path id="path10784" fill="url(#path10784_1_)" stroke="#888A85" d="M23.7,34.92c0,0-2-2.26-2-8c0-5.79,12-17.38,12-17.38
	l1.899,1.62L23.7,34.92z"/>
<linearGradient id="path10848_1_" gradientUnits="userSpaceOnUse" x1="114.3594" y1="133.4229" x2="119.8595" y2="129.1728" gradientTransform="matrix(1 0 0 -1 -89.7998 152)">
	<stop  offset="0" style="stop-color:#FFFFFF"/>
	<stop  offset="1" style="stop-color:#FFFFFF;stop-opacity:0"/>
</linearGradient>
<path id="path10848" fill="none" stroke="url(#path10848_1_)" d="M23.7,32.5c0,0-0.9-1.66-1-5.68c-0.1-4.061,10.7-16.09,10.7-16.09
	l1,0.53L23.7,32.5z"/>
<path id="path12233" opacity="0.6" fill="#FFFFFF" enable-background="new    " d="M22.4,30.41L33.7,11.8l0.7,0.57L23.7,33.73
	L22.4,30.41z"/>
<path id="path2799" opacity="0.1558" enable-background="new    " d="M29,15.3l2,3.97l-0.7,1.33L29,15.3z"/>
<g>
	<path id="path10822" fill="#3465A4" stroke="#204A87" stroke-width="1.068" stroke-linecap="round" d="M39.7,1.53
		c3.5,0.1,5,2.68,5,5.97c0,3.09-2,5.63-4.5,5.93h-4.7l-2.8-2.71C33.3,9.42,34.6,8.31,34.6,7.3C34.7,5.21,36.1,1.44,39.7,1.49V1.53z
		 M39.7,4.61c-2.101,0-3.101,1.31-3.101,2.7l0.101,4.15H40c1.5-0.21,2.6-1.93,2.6-3.99c0-2.2-0.8-2.79-2.899-2.83V4.61z"/>
	
		<path id="path12237" opacity="0.2" fill="none" stroke="#FFFFFF" stroke-width="1.068" stroke-linecap="round" enable-background="new    " d="
		M39.5,2.53c3,0,4.2,2.229,4.2,4.97c0,2.57-1.7,4.69-3.8,4.94H36.1L34,10.5c0.6-0.93,1.5-1.64,1.6-2.47c0-1.74,1-5.57,3.9-5.53V2.53
		z"/>
	<path id="path2801" opacity="0.6482" fill="#FFFFFF" enable-background="new    " d="M38.159,3.496
		c0,0.273-0.222,0.496-0.495,0.496s-0.496-0.222-0.496-0.496S37.391,3,37.664,3S38.159,3.222,38.159,3.496z"/>
</g>
<path id="path2805" fill="#FFFFFF" d="M32.208,14.006c0,0.542-0.44,0.982-0.983,0.982s-0.982-0.44-0.982-0.982
	c0-0.543,0.439-0.983,0.982-0.983S32.208,13.463,32.208,14.006z"/>
<g id="layer4" transform="translate(0,-252)">
</g>
<g id="g7235" transform="translate(1,0)" opacity="0.9">
	
		<linearGradient id="rect3561_1_" gradientUnits="userSpaceOnUse" x1="-205.0244" y1="109.9688" x2="-205.0244" y2="153.3907" gradientTransform="matrix(4.489659e-011 -1 -1 -4.489659e-011 156 -172)">
		<stop  offset="0" style="stop-color:#555753;stop-opacity:0"/>
		<stop  offset="0.3479" style="stop-color:#6D6F6A"/>
		<stop  offset="0.7929" style="stop-color:#6F726C"/>
		<stop  offset="1" style="stop-color:#555753;stop-opacity:0"/>
	</linearGradient>
	
		<linearGradient id="rect3561_2_" gradientUnits="userSpaceOnUse" x1="-205.0244" y1="108.3086" x2="-205.0244" y2="154.4748" gradientTransform="matrix(4.489659e-011 -1 -1 -4.489659e-011 156 -172)">
		<stop  offset="0" style="stop-color:#2E3436;stop-opacity:0"/>
		<stop  offset="0.1929" style="stop-color:#2E3436"/>
		<stop  offset="0.7" style="stop-color:#2E3436"/>
		<stop  offset="1" style="stop-color:#2E3436;stop-opacity:0"/>
	</linearGradient>
	
		<path id="rect3561" fill="url(#rect3561_1_)" stroke="url(#rect3561_2_)" stroke-linecap="round" d="
		M-13.8,43.881h72.694v-1.888H57.95v-1.889h0.944V25.943H57.95v-1.888h0.944v-1.888H-13.8v1.888h1.888v1.888H-13.8v14.161h1.888
		v1.889H-13.8V43.881z M-10.023,41.993v-1.889h1.888v1.889H-10.023z M-10.023,25.943v-1.888h1.888v1.888H-10.023z M-6.247,41.993
		v-1.889h1.888v1.889H-6.247z M-6.247,25.943v-1.888h1.888v1.888H-6.247z M-2.471,41.993v-1.889h1.888v1.889H-2.471z M-2.471,25.943
		v-1.888h1.888v1.888H-2.471z M1.305,41.993v-1.889h1.889v1.889H1.305z M1.305,25.943v-1.888h1.889v1.888H1.305z M5.082,41.993
		v-1.889H6.97v1.889H5.082z M5.082,25.943v-1.888H6.97v1.888H5.082z M8.858,41.993v-1.889h1.888v1.889H8.858z M8.858,25.943v-1.888
		h1.888v1.888H8.858z M12.634,41.993v-1.889h1.889v1.889H12.634z M12.634,25.943v-1.888h1.889v1.888H12.634z M16.411,41.993v-1.889
		h1.888v1.889H16.411z M16.411,25.943v-1.888h1.888v1.888H16.411z M20.187,41.993v-1.889h1.888v1.889H20.187z M20.187,25.943v-1.888
		h1.888v1.888H20.187z M23.963,41.993v-1.889h1.889v1.889H23.963z M23.963,25.943v-1.888h1.889v1.888H23.963z M27.74,41.993v-1.889
		h1.888v1.889H27.74z M27.74,25.943v-1.888h1.888v1.888H27.74z M31.517,41.993v-1.889h1.888v1.889H31.517z M31.517,25.943v-1.888
		h1.888v1.888H31.517z M35.293,41.993v-1.889h1.888v1.889H35.293z M35.293,25.943v-1.888h1.888v1.888H35.293z M39.068,41.993v-1.889
		h1.889v1.889H39.068z M39.068,25.943v-1.888h1.889v1.888H39.068z M42.846,41.993v-1.889h1.888v1.889H42.846z M42.846,25.943v-1.888
		h1.888v1.888H42.846z M46.622,41.993v-1.889h1.888v1.889H46.622z M46.622,25.943v-1.888h1.888v1.888H46.622z M50.398,41.993v-1.889
		h1.888v1.889H50.398z M50.398,25.943v-1.888h1.888v1.888H50.398z M54.175,41.993v-1.889h1.888v1.889H54.175z M54.175,25.943v-1.888
		h1.888v1.888H54.175z"/>
	
		<linearGradient id="rect3558_1_" gradientUnits="userSpaceOnUse" x1="-135.9043" y1="135.2256" x2="-135.9043" y2="125.8961" gradientTransform="matrix(3.591728e-011 -0.8 -1 -4.489659e-011 156 -75.7004)">
		<stop  offset="0" style="stop-color:#729FCF"/>
		<stop  offset="1" style="stop-color:#FFFFFF"/>
	</linearGradient>
	<path id="rect3558" fill="url(#rect3558_1_)" d="M19.715,38.688V27.359h10.385v11.329H19.715z"/>
	
		<linearGradient id="rect6707_1_" gradientUnits="userSpaceOnUse" x1="-204.0229" y1="154.0576" x2="-204.0229" y2="110.5958" gradientTransform="matrix(4.489659e-011 -1 -1 -4.489659e-011 157 -171)">
		<stop  offset="0" style="stop-color:#FFFFFF;stop-opacity:0"/>
		<stop  offset="0.1633" style="stop-color:#FFFFFF"/>
		<stop  offset="0.8" style="stop-color:#FFFFFF"/>
		<stop  offset="1" style="stop-color:#FFFFFF;stop-opacity:0"/>
	</linearGradient>
	
		<path id="rect6707" opacity="0.3" fill="none" stroke="url(#rect6707_1_)" stroke-width="1" stroke-linecap="round" stroke-miterlimit="10" enable-background="new    " d="
		M-12.856,42.937V23.111H57.95v19.826H-12.856z"/>
	
		<linearGradient id="rect7694_1_" gradientUnits="userSpaceOnUse" x1="-135.9043" y1="134.5537" x2="-135.9043" y2="125.2251" gradientTransform="matrix(3.591728e-011 -0.8 -1 -4.489659e-011 144 -75.7004)">
		<stop  offset="0" style="stop-color:#729FCF;stop-opacity:0.6221"/>
		<stop  offset="1" style="stop-color:#FFFFFF"/>
	</linearGradient>
	<path id="rect7694" fill="url(#rect7694_1_)" d="M8.386,38.688V27.359h10.385v11.329H8.386z"/>
	
		<linearGradient id="rect7698_1_" gradientUnits="userSpaceOnUse" x1="-135.9053" y1="148.5576" x2="-135.9053" y2="153.7512" gradientTransform="matrix(3.591728e-011 -0.8 -1 -4.489659e-011 156 -75.7004)">
		<stop  offset="0" style="stop-color:#FFFFFF"/>
		<stop  offset="1" style="stop-color:#729FCF;stop-opacity:0"/>
	</linearGradient>
	<path id="rect7698" opacity="0.5" fill="url(#rect7698_1_)" enable-background="new    " d="
		M-2.943,38.688V27.359H7.442v11.329H-2.943z"/>
	
		<linearGradient id="rect7702_1_" gradientUnits="userSpaceOnUse" x1="-135.9043" y1="135.8965" x2="-135.9043" y2="126.567" gradientTransform="matrix(3.591728e-011 -0.8 -1 -4.489659e-011 168 -75.7004)">
		<stop  offset="0" style="stop-color:#729FCF"/>
		<stop  offset="1" style="stop-color:#FFFFFF;stop-opacity:0.6908"/>
	</linearGradient>
	<path id="rect7702" fill="url(#rect7702_1_)" d="M31.044,38.688V27.359H41.43v11.329H31.044z"/>
	
		<linearGradient id="path7209_1_" gradientUnits="userSpaceOnUse" x1="-135.9043" y1="137.2744" x2="-135.9043" y2="129.354" gradientTransform="matrix(3.591728e-011 -0.8 -1 -4.489659e-011 180 -75.7004)">
		<stop  offset="0" style="stop-color:#9BBBDD"/>
		<stop  offset="0.5" style="stop-color:#B8CFE7;stop-opacity:0.0296"/>
		<stop  offset="1" style="stop-color:#FFFFFF;stop-opacity:0"/>
	</linearGradient>
	<path id="path7209" opacity="0.7463" fill="url(#path7209_1_)" enable-background="new    " d="
		M42.374,38.688V27.359h10.384v11.329H42.374z"/>
</g>
<g>
	<path id="path10842" opacity="0.6" fill="#FFFFFF" enable-background="new    " d="M41,31.09L29.6,12.48L28.9,13.05L39.7,34.4
		L41,31.09L41,31.09z"/>
	
		<linearGradient id="path10786_1_" gradientUnits="userSpaceOnUse" x1="117.5811" y1="131.1387" x2="134.8815" y2="126.6285" gradientTransform="matrix(1 0 0 -1 -89.7998 152)">
		<stop  offset="0" style="stop-color:#D9D6D0"/>
		<stop  offset="0.2852" style="stop-color:#FFFFFF"/>
		<stop  offset="0.4597" style="stop-color:#D3D7CF"/>
		<stop  offset="0.6411" style="stop-color:#EEEEEC"/>
		<stop  offset="1" style="stop-color:#BABDB6"/>
	</linearGradient>
	<path id="path10786" fill="url(#path10786_1_)" stroke="#888A85" d="M39.7,35.48c0,0,2-2.561,2-7.971C41.7,22.09,30,9.93,30,9.93
		l-2.2,1.87L39.7,35.48L39.7,35.48z"/>
	<path id="path10846" opacity="0.6651" fill="none" stroke="#FFFFFF" enable-background="new    " d="M39.7,33.23
		c0,0,0.899-1.66,1.1-5.681C40.9,23.49,30,11.47,30,11.47L29.1,12L39.7,33.23L39.7,33.23z"/>
</g>
<path id="path2797" fill="#FFFFFF" stroke="#888A85" d="M32.7,14.91c0,0.674-0.546,1.22-1.22,1.22s-1.221-0.546-1.221-1.22
	s0.547-1.22,1.221-1.22S32.7,14.236,32.7,14.91z"/>
<g>
	<path id="path10805" fill="#3465A4" stroke="#204A87" stroke-width="1.068" stroke-linecap="round" d="M23.7,1.53
		c-3.5,0.1-5,2.68-5,5.97c0,3.09,2,5.63,4.5,5.93h4.7l2.8-2.71c-0.601-1.3-1.9-2.41-1.9-3.42c-0.1-2.09-1.5-5.86-5.1-5.81V1.53z
		 M23.7,4.57c2.1,0,3,1.35,3,2.74v4.11h-3.3c-1.5-0.2-2.6-1.88-2.6-3.94c0-2.2,0.8-2.84,2.9-2.87V4.57z"/>
	
		<path id="path12235" opacity="0.2" fill="none" stroke="#FFFFFF" stroke-width="1.068" stroke-linecap="round" enable-background="new    " d="
		M23.9,2.53c-3,0-4.2,2.229-4.2,4.97c0,2.57,1.7,4.69,3.8,4.94h3.8L29.4,10.5C28.8,9.57,27.9,8.86,27.8,8.03c0-1.74-1-5.57-3.9-5.53
		V2.53z"/>
	<path id="path2803" opacity="0.6482" fill="#FFFFFF" enable-background="new    " d="M21.159,3.496
		c0,0.273-0.222,0.496-0.496,0.496c-0.273,0-0.495-0.222-0.495-0.496S20.39,3,20.664,3C20.938,3,21.159,3.222,21.159,3.496z"/>
</g>
</svg>
